<mxfile host="Electron" agent="Mozilla/5.0 (Windows NT 10.0; Win64; x64) AppleWebKit/537.36 (KHTML, like Gecko) draw.io/24.7.17 Chrome/128.0.6613.36 Electron/32.0.1 Safari/537.36" version="24.7.17">
  <diagram name="PÃ¡gina-1" id="MI0Qso2G5_UdOSjVbqyH">
    <mxGraphModel dx="926" dy="560" grid="1" gridSize="10" guides="1" tooltips="1" connect="1" arrows="1" fold="1" page="1" pageScale="1" pageWidth="827" pageHeight="1169" math="0" shadow="0">
      <root>
        <mxCell id="0" />
        <mxCell id="1" parent="0" />
        <mxCell id="VpDkjlxxtySyVq0ekypC-2" style="edgeStyle=orthogonalEdgeStyle;rounded=0;orthogonalLoop=1;jettySize=auto;html=1;exitX=0.5;exitY=1;exitDx=0;exitDy=0;exitPerimeter=0;entryX=0.5;entryY=0;entryDx=0;entryDy=0;" edge="1" parent="1" source="VpDkjlxxtySyVq0ekypC-1" target="VpDkjlxxtySyVq0ekypC-3">
          <mxGeometry relative="1" as="geometry">
            <mxPoint x="340" y="160" as="targetPoint" />
          </mxGeometry>
        </mxCell>
        <mxCell id="VpDkjlxxtySyVq0ekypC-1" value="Inicio de session" style="strokeWidth=2;html=1;shape=mxgraph.flowchart.terminator;whiteSpace=wrap;" vertex="1" parent="1">
          <mxGeometry x="290" y="50" width="100" height="60" as="geometry" />
        </mxCell>
        <mxCell id="VpDkjlxxtySyVq0ekypC-4" style="edgeStyle=orthogonalEdgeStyle;rounded=0;orthogonalLoop=1;jettySize=auto;html=1;exitX=0.5;exitY=1;exitDx=0;exitDy=0;" edge="1" parent="1" source="VpDkjlxxtySyVq0ekypC-3">
          <mxGeometry relative="1" as="geometry">
            <mxPoint x="340" y="230" as="targetPoint" />
          </mxGeometry>
        </mxCell>
        <mxCell id="VpDkjlxxtySyVq0ekypC-3" value="El Sistema Muestra el inicio de session" style="rounded=1;whiteSpace=wrap;html=1;absoluteArcSize=1;arcSize=14;strokeWidth=2;" vertex="1" parent="1">
          <mxGeometry x="290" y="150" width="100" height="50" as="geometry" />
        </mxCell>
        <mxCell id="VpDkjlxxtySyVq0ekypC-5" value="&lt;div style=&quot;&quot;&gt;&lt;span style=&quot;font-size: 10px; background-color: initial;&quot;&gt;El usuario ingresa sus datos&amp;nbsp;&lt;/span&gt;&lt;/div&gt;" style="shape=parallelogram;html=1;strokeWidth=2;perimeter=parallelogramPerimeter;whiteSpace=wrap;rounded=1;arcSize=12;size=0.23;align=center;" vertex="1" parent="1">
          <mxGeometry x="255" y="230" width="170" height="60" as="geometry" />
        </mxCell>
        <mxCell id="VpDkjlxxtySyVq0ekypC-9" style="edgeStyle=orthogonalEdgeStyle;rounded=0;orthogonalLoop=1;jettySize=auto;html=1;exitX=1;exitY=0.5;exitDx=0;exitDy=0;exitPerimeter=0;entryX=0;entryY=0.5;entryDx=0;entryDy=0;" edge="1" parent="1" source="VpDkjlxxtySyVq0ekypC-6" target="VpDkjlxxtySyVq0ekypC-25">
          <mxGeometry relative="1" as="geometry">
            <mxPoint x="433.0899999999999" y="370" as="targetPoint" />
          </mxGeometry>
        </mxCell>
        <mxCell id="VpDkjlxxtySyVq0ekypC-11" value="si" style="edgeLabel;html=1;align=center;verticalAlign=middle;resizable=0;points=[];" vertex="1" connectable="0" parent="VpDkjlxxtySyVq0ekypC-9">
          <mxGeometry x="0.0265" y="-3" relative="1" as="geometry">
            <mxPoint as="offset" />
          </mxGeometry>
        </mxCell>
        <mxCell id="VpDkjlxxtySyVq0ekypC-10" style="edgeStyle=orthogonalEdgeStyle;rounded=0;orthogonalLoop=1;jettySize=auto;html=1;exitX=0.5;exitY=1;exitDx=0;exitDy=0;exitPerimeter=0;entryX=0.5;entryY=0;entryDx=0;entryDy=0;" edge="1" parent="1" source="VpDkjlxxtySyVq0ekypC-6" target="VpDkjlxxtySyVq0ekypC-7">
          <mxGeometry relative="1" as="geometry" />
        </mxCell>
        <mxCell id="VpDkjlxxtySyVq0ekypC-12" value="no" style="edgeLabel;html=1;align=center;verticalAlign=middle;resizable=0;points=[];" vertex="1" connectable="0" parent="VpDkjlxxtySyVq0ekypC-10">
          <mxGeometry x="-0.24" relative="1" as="geometry">
            <mxPoint as="offset" />
          </mxGeometry>
        </mxCell>
        <mxCell id="VpDkjlxxtySyVq0ekypC-6" value="El Usuario Existe" style="strokeWidth=2;html=1;shape=mxgraph.flowchart.decision;whiteSpace=wrap;" vertex="1" parent="1">
          <mxGeometry x="260" y="320" width="130" height="100" as="geometry" />
        </mxCell>
        <mxCell id="VpDkjlxxtySyVq0ekypC-7" value="&lt;font style=&quot;font-size: 10px;&quot;&gt;El usuario tendra que registrarse e iniciar session&lt;/font&gt;" style="shape=parallelogram;html=1;strokeWidth=2;perimeter=parallelogramPerimeter;whiteSpace=wrap;rounded=1;arcSize=12;size=0.23;align=center;" vertex="1" parent="1">
          <mxGeometry x="210" y="470" width="190" height="70" as="geometry" />
        </mxCell>
        <mxCell id="VpDkjlxxtySyVq0ekypC-13" style="edgeStyle=orthogonalEdgeStyle;rounded=0;orthogonalLoop=1;jettySize=auto;html=1;exitX=0.5;exitY=1;exitDx=0;exitDy=0;entryX=0.5;entryY=0;entryDx=0;entryDy=0;entryPerimeter=0;" edge="1" parent="1" source="VpDkjlxxtySyVq0ekypC-5" target="VpDkjlxxtySyVq0ekypC-6">
          <mxGeometry relative="1" as="geometry" />
        </mxCell>
        <mxCell id="VpDkjlxxtySyVq0ekypC-14" value="El Usuario puede visualizar sus archivos" style="strokeWidth=2;html=1;shape=mxgraph.flowchart.multi-document;whiteSpace=wrap;" vertex="1" parent="1">
          <mxGeometry x="790" y="310" width="120" height="90" as="geometry" />
        </mxCell>
        <mxCell id="VpDkjlxxtySyVq0ekypC-15" style="edgeStyle=orthogonalEdgeStyle;rounded=0;orthogonalLoop=1;jettySize=auto;html=1;exitX=1;exitY=0.5;exitDx=0;exitDy=0;entryX=0.5;entryY=1;entryDx=0;entryDy=0;" edge="1" parent="1" source="VpDkjlxxtySyVq0ekypC-7" target="VpDkjlxxtySyVq0ekypC-26">
          <mxGeometry relative="1" as="geometry">
            <mxPoint x="674.0759999999998" y="403.0000000000001" as="targetPoint" />
            <Array as="points">
              <mxPoint x="620" y="505" />
            </Array>
          </mxGeometry>
        </mxCell>
        <mxCell id="VpDkjlxxtySyVq0ekypC-16" style="edgeStyle=orthogonalEdgeStyle;rounded=0;orthogonalLoop=1;jettySize=auto;html=1;exitX=1;exitY=0.5;exitDx=0;exitDy=0;entryX=0.033;entryY=0.622;entryDx=0;entryDy=0;entryPerimeter=0;" edge="1" parent="1" source="VpDkjlxxtySyVq0ekypC-26" target="VpDkjlxxtySyVq0ekypC-14">
          <mxGeometry relative="1" as="geometry">
            <mxPoint x="560.9100000000001" y="370" as="sourcePoint" />
          </mxGeometry>
        </mxCell>
        <mxCell id="VpDkjlxxtySyVq0ekypC-20" value="El usuario expoprta sus datos personales&amp;nbsp;" style="strokeWidth=2;html=1;shape=mxgraph.flowchart.document2;whiteSpace=wrap;size=0.25;" vertex="1" parent="1">
          <mxGeometry x="820" y="170" width="130" height="80" as="geometry" />
        </mxCell>
        <mxCell id="VpDkjlxxtySyVq0ekypC-22" style="edgeStyle=orthogonalEdgeStyle;rounded=0;orthogonalLoop=1;jettySize=auto;html=1;exitX=0.5;exitY=0;exitDx=0;exitDy=0;exitPerimeter=0;entryX=0.454;entryY=0.888;entryDx=0;entryDy=0;entryPerimeter=0;" edge="1" parent="1" source="VpDkjlxxtySyVq0ekypC-14" target="VpDkjlxxtySyVq0ekypC-20">
          <mxGeometry relative="1" as="geometry" />
        </mxCell>
        <mxCell id="VpDkjlxxtySyVq0ekypC-23" value="Cierra session" style="strokeWidth=2;html=1;shape=mxgraph.flowchart.terminator;whiteSpace=wrap;" vertex="1" parent="1">
          <mxGeometry x="1000" y="180" width="100" height="60" as="geometry" />
        </mxCell>
        <mxCell id="VpDkjlxxtySyVq0ekypC-24" style="edgeStyle=orthogonalEdgeStyle;rounded=0;orthogonalLoop=1;jettySize=auto;html=1;exitX=1;exitY=0.5;exitDx=0;exitDy=0;exitPerimeter=0;entryX=0;entryY=0.5;entryDx=0;entryDy=0;entryPerimeter=0;" edge="1" parent="1" source="VpDkjlxxtySyVq0ekypC-20" target="VpDkjlxxtySyVq0ekypC-23">
          <mxGeometry relative="1" as="geometry" />
        </mxCell>
        <mxCell id="VpDkjlxxtySyVq0ekypC-25" value="&lt;span style=&quot;font-size: 10px;&quot;&gt;El usuario ingresa a la app&amp;nbsp;&lt;/span&gt;" style="rounded=1;whiteSpace=wrap;html=1;absoluteArcSize=1;arcSize=14;strokeWidth=2;" vertex="1" parent="1">
          <mxGeometry x="430" y="345" width="100" height="50" as="geometry" />
        </mxCell>
        <mxCell id="VpDkjlxxtySyVq0ekypC-27" value="" style="edgeStyle=orthogonalEdgeStyle;rounded=0;orthogonalLoop=1;jettySize=auto;html=1;exitX=1;exitY=0.5;exitDx=0;exitDy=0;entryX=0;entryY=0.5;entryDx=0;entryDy=0;" edge="1" parent="1" source="VpDkjlxxtySyVq0ekypC-25" target="VpDkjlxxtySyVq0ekypC-26">
          <mxGeometry relative="1" as="geometry">
            <mxPoint x="560.9100000000001" y="370" as="sourcePoint" />
            <mxPoint x="824" y="376" as="targetPoint" />
          </mxGeometry>
        </mxCell>
        <mxCell id="VpDkjlxxtySyVq0ekypC-26" value="&lt;span style=&quot;font-size: 10px;&quot;&gt;El usuario ingrersa a el apartado de datos personales&amp;nbsp;&lt;/span&gt;" style="rounded=1;whiteSpace=wrap;html=1;absoluteArcSize=1;arcSize=14;strokeWidth=2;" vertex="1" parent="1">
          <mxGeometry x="570" y="345" width="100" height="50" as="geometry" />
        </mxCell>
      </root>
    </mxGraphModel>
  </diagram>
</mxfile>
